<svg width="518" height="224" viewBox="0 0 518 224" fill="none" xmlns="http://www.w3.org/2000/svg">
<path d="M471.497 37.7806L517.631 0.435855L0.693359 0.43576L46.828 37.7806H471.497Z" fill="#FF7B9C"/>
<path d="M247.535 200.248C254.381 205.79 263.943 205.79 270.79 200.248L473.657 36.0319C487.984 24.4349 480.144 0.435874 462.029 0.435871L56.2951 0.435796C38.1803 0.435793 30.341 24.4348 44.6676 36.0319L247.535 200.248Z" fill="#FF7B9C"/>
<path d="M233.491 207.372C240.546 213.766 246.381 221.786 258.792 221.968C260.181 221.529 263.463 221.463 263.95 220.621C264.074 220.405 266.283 219.531 266.704 219.434C267.688 219.208 268.854 219.085 269.762 218.717C270.54 218.401 271.766 218.078 272.648 218.024C273.546 217.97 273.964 217.336 274.793 217.104C275.196 216.992 277.808 214.543 277.819 214.351C277.848 213.839 279.073 213.359 279.395 212.848C279.732 212.314 280.729 211.733 281.232 211.243C281.899 210.594 282.229 210.045 283.033 209.497C283.793 208.98 285.041 208.166 285.587 207.547C287.649 205.209 291.803 203.262 292.331 200.419C292.505 199.481 293.146 198.368 293.453 197.436C293.843 196.253 294.683 194.943 295.239 193.796C296.081 192.057 296.792 190.274 297.703 188.593C298.595 186.947 298.502 185.212 298.822 183.487C299.097 182.005 299.483 180.183 299.316 178.676C299.044 176.216 299.817 173.756 299.543 171.284L298.919 165.652C298.74 164.036 298.608 161.639 296.952 160.474C295.52 159.468 293.045 158.379 290.956 158.269C287.959 158.112 284.885 156.816 281.925 156.996C279.766 157.127 277.318 157.229 275.41 157.966C274.188 158.438 273.258 158.959 272.116 159.531C270.509 160.336 269.766 161.755 268.246 162.537C266.345 163.515 264.64 165.765 263.717 167.277C262.922 168.578 263.491 170.356 263.328 171.808C263.28 172.235 262.648 172.555 262.507 172.963C262.357 173.395 262.596 174.042 262.164 174.419C261.952 174.605 261.725 172.904 261.702 172.696L261.406 170.016C261.315 169.196 260.931 169.139 260.368 168.514C259.368 167.404 258.663 165.878 257.676 164.673C256.8 163.602 255.907 162.409 254.877 161.426C250.74 157.483 244.987 154.914 238.104 154.767C236.249 154.727 235.024 155.387 233.311 155.561C231.06 155.789 228.842 156.601 226.986 157.554C223.467 159.36 219.984 163.128 219.518 166.363C219.311 167.8 218.889 169.192 218.946 170.647C219.034 172.851 219.197 175.166 218.837 177.357C218.415 179.93 219.248 182.816 219.534 185.397C219.879 188.512 220.457 191.285 221.831 194.243C224.209 199.366 228.928 203.238 233.491 207.372Z" fill="#D23960"/>
<path fill-rule="evenodd" clip-rule="evenodd" d="M235.963 156.589C235.343 156.744 234.505 156.954 233.586 157.047C231.765 157.232 229.848 157.909 228.139 158.787C226.636 159.558 225.061 160.797 223.808 162.236C222.55 163.681 221.72 165.208 221.531 166.522C221.463 166.992 221.367 167.494 221.277 167.961C221.227 168.219 221.18 168.467 221.14 168.691C221.021 169.372 220.946 169.992 220.97 170.603C220.98 170.864 220.992 171.13 221.004 171.399C221.089 173.344 221.183 175.49 220.847 177.538C220.664 178.655 220.747 179.886 220.934 181.219C221.003 181.717 221.094 182.264 221.187 182.823C221.325 183.653 221.467 184.51 221.552 185.274C221.889 188.321 222.446 190.958 223.745 193.755C225.741 198.055 229.485 201.416 233.591 205.102C234.076 205.537 234.565 205.976 235.058 206.423C236.243 207.497 237.414 208.634 238.561 209.749C239.138 210.31 239.71 210.866 240.274 211.404C241.992 213.044 243.704 214.587 245.55 215.928C249.126 218.525 253.12 220.306 258.461 220.46C258.882 220.358 259.32 220.283 259.692 220.224C259.971 220.18 260.204 220.145 260.425 220.112C260.701 220.072 260.958 220.033 261.264 219.982C261.747 219.901 262.079 219.828 262.288 219.762C262.386 219.655 262.477 219.582 262.522 219.547C262.624 219.465 262.725 219.4 262.799 219.355C262.95 219.263 263.113 219.178 263.254 219.109C263.545 218.965 263.895 218.812 264.227 218.674C264.564 218.534 264.912 218.398 265.212 218.287C265.454 218.198 265.817 218.067 266.105 218.001C266.466 217.918 266.915 217.835 267.287 217.765C267.459 217.733 267.615 217.704 267.737 217.68C268.226 217.583 268.555 217.496 268.792 217.4C269.705 217.031 271.132 216.635 272.346 216.539C272.374 216.524 272.413 216.501 272.466 216.47C272.484 216.458 272.51 216.442 272.542 216.423C272.66 216.349 272.857 216.227 273.034 216.131C273.217 216.03 273.447 215.917 273.723 215.816C273.778 215.774 273.847 215.719 273.931 215.65C274.198 215.43 274.537 215.131 274.876 214.818C275.214 214.506 275.533 214.199 275.76 213.966C275.817 213.908 275.864 213.859 275.902 213.818C276.029 213.494 276.243 213.244 276.403 213.083C276.64 212.844 276.92 212.642 277.101 212.514C277.176 212.461 277.239 212.417 277.293 212.379C277.401 212.304 277.475 212.252 277.553 212.191C277.576 212.174 277.592 212.161 277.603 212.151C277.937 211.655 278.473 211.236 278.793 210.99C278.924 210.889 279.035 210.804 279.132 210.731C279.366 210.553 279.511 210.443 279.623 210.334C279.813 210.149 279.945 210.002 280.104 209.824C280.194 209.724 280.292 209.614 280.415 209.481C280.725 209.148 281.107 208.773 281.665 208.392C281.755 208.331 281.848 208.268 281.943 208.204C282.275 207.98 282.629 207.74 282.974 207.489C283.437 207.153 283.749 206.89 283.894 206.726C284.501 206.038 285.237 205.406 285.946 204.833C286.271 204.57 286.57 204.336 286.859 204.109C287.252 203.8 287.627 203.506 288.023 203.175C289.347 202.074 290.151 201.163 290.327 200.214C290.44 199.604 290.694 198.982 290.915 198.469C290.97 198.342 291.022 198.221 291.073 198.107C291.244 197.715 291.386 197.389 291.488 197.08C291.717 196.385 292.067 195.684 292.401 195.054C292.52 194.83 292.635 194.618 292.745 194.416C292.961 194.017 293.159 193.653 293.335 193.289C293.623 192.695 293.912 192.054 294.209 191.397C294.717 190.275 295.246 189.105 295.826 188.035C296.172 187.395 296.346 186.704 296.466 185.904C296.506 185.64 296.544 185.317 296.585 184.97C296.65 184.415 296.722 183.801 296.818 183.282C296.84 183.162 296.863 183.042 296.886 182.922C297.157 181.476 297.433 180.001 297.3 178.799C297.151 177.452 297.286 176.123 297.407 174.926L297.413 174.872C297.54 173.621 297.649 172.506 297.527 171.407L296.903 165.774C296.889 165.647 296.876 165.519 296.862 165.391C296.784 164.652 296.705 163.906 296.508 163.196C296.271 162.341 295.931 161.824 295.56 161.563C294.986 161.159 294.163 160.715 293.261 160.364C292.343 160.007 291.481 159.801 290.813 159.766C289.273 159.685 287.722 159.349 286.422 159.067C286.233 159.026 286.048 158.986 285.87 158.948C284.346 158.625 283.162 158.426 282.092 158.491C282.001 158.496 281.912 158.502 281.823 158.507C279.619 158.64 277.752 158.753 276.345 159.297C275.517 159.617 274.873 159.946 274.065 160.36C273.813 160.489 273.545 160.626 273.25 160.773C272.756 161.021 272.351 161.383 271.75 161.96C271.722 161.987 271.693 162.014 271.664 162.043C271.137 162.549 270.408 163.251 269.401 163.769C268.764 164.097 268.032 164.717 267.303 165.534C266.597 166.326 265.99 167.193 265.561 167.895C265.364 168.217 265.288 168.693 265.309 169.454C265.314 169.622 265.325 169.817 265.338 170.03C265.372 170.614 265.413 171.326 265.345 171.933C265.304 172.299 265.142 172.595 264.992 172.807C264.848 173.011 264.682 173.181 264.587 173.277C264.558 173.306 264.535 173.331 264.514 173.351C264.498 173.367 264.485 173.381 264.473 173.393C264.472 173.429 264.472 173.469 264.471 173.523L264.471 173.529C264.47 173.593 264.469 173.678 264.464 173.766C264.45 174.055 264.407 174.78 263.708 175.39C263.433 175.631 262.705 176.076 261.659 175.893C260.873 175.755 260.489 175.336 260.407 175.245C260.186 175.002 260.089 174.745 260.059 174.666L260.058 174.661C259.97 174.428 259.906 174.147 259.862 173.927C259.767 173.458 259.7 172.946 259.686 172.819L259.389 170.138C259.382 170.074 259.374 170.034 259.368 170.011C259.345 169.989 259.308 169.955 259.216 169.871L259.187 169.845C259.056 169.726 258.88 169.562 258.686 169.347C258.088 168.684 257.602 167.924 257.186 167.266C257.16 167.225 257.135 167.185 257.109 167.145C256.7 166.498 256.347 165.939 255.947 165.451C255.738 165.196 255.536 164.944 255.338 164.698C254.648 163.838 254.007 163.04 253.28 162.347C249.446 158.693 244.224 156.398 238.046 156.266C237.473 156.254 236.969 156.344 236.282 156.51C236.184 156.534 236.077 156.561 235.963 156.589ZM262.42 219.712C262.42 219.712 262.413 219.717 262.393 219.725C262.409 219.716 262.42 219.712 262.42 219.712ZM235.028 153.658C235.845 153.46 236.882 153.24 238.163 153.268C245.752 153.429 252.035 156.274 256.475 160.506C257.373 161.361 258.186 162.376 258.892 163.256C259.071 163.479 259.243 163.693 259.407 163.894C259.925 164.527 260.368 165.229 260.753 165.839C260.786 165.891 260.818 165.942 260.85 165.992C261.125 166.427 261.374 166.812 261.621 167.148C261.692 166.984 261.775 166.82 261.874 166.658C262.368 165.849 263.075 164.835 263.927 163.879C264.758 162.948 265.829 161.955 267.093 161.304C267.549 161.07 267.927 160.721 268.548 160.125L268.581 160.093C269.131 159.566 269.893 158.834 270.984 158.288C271.203 158.178 271.425 158.064 271.65 157.949C272.498 157.514 273.403 157.05 274.475 156.636C276.645 155.798 279.307 155.644 281.274 155.53C281.441 155.52 281.604 155.51 281.761 155.501C283.649 155.386 285.482 155.745 286.984 156.064C287.19 156.108 287.39 156.151 287.585 156.193C288.93 156.482 290.024 156.717 291.099 156.773C292.522 156.848 293.942 157.241 295.141 157.707C296.356 158.18 297.487 158.783 298.345 159.386C299.63 160.289 300.184 161.552 300.473 162.592C300.725 163.503 300.825 164.461 300.901 165.19C300.914 165.31 300.925 165.423 300.937 165.529L301.561 171.161C301.711 172.517 301.575 173.85 301.453 175.05L301.449 175.097C301.322 176.349 301.213 177.461 301.334 178.554C301.506 180.109 301.163 181.919 300.903 183.29C300.877 183.429 300.852 183.563 300.828 183.691C300.735 184.189 300.688 184.609 300.637 185.064C300.598 185.416 300.556 185.789 300.489 186.235C300.352 187.146 300.127 188.146 299.582 189.152C299.033 190.165 298.585 191.159 298.115 192.202C297.812 192.876 297.499 193.57 297.144 194.303C296.942 194.719 296.696 195.173 296.464 195.603C296.361 195.792 296.261 195.977 296.168 196.151C295.846 196.759 295.581 197.305 295.42 197.793C295.279 198.22 295.074 198.687 294.896 199.094C294.852 199.194 294.81 199.29 294.771 199.381C294.551 199.893 294.397 200.296 294.336 200.623C293.985 202.518 292.448 204.003 291.047 205.17C290.636 205.512 290.165 205.883 289.723 206.231C289.438 206.455 289.166 206.669 288.929 206.861C288.262 207.4 287.705 207.888 287.281 208.368C286.88 208.823 286.296 209.276 285.808 209.631C285.405 209.924 284.978 210.213 284.642 210.44C284.555 210.498 284.475 210.553 284.403 210.602C284.157 210.769 283.972 210.942 283.749 211.182C283.697 211.238 283.634 211.309 283.562 211.389C283.368 211.604 283.112 211.89 282.842 212.152C282.563 212.424 282.166 212.724 281.887 212.935C281.82 212.985 281.761 213.03 281.711 213.068C281.547 213.195 281.424 213.295 281.332 213.38C281.241 213.464 281.221 213.497 281.228 213.486C281.007 213.835 280.689 214.101 280.483 214.261C280.323 214.386 280.129 214.521 279.993 214.616C279.955 214.642 279.922 214.665 279.896 214.684C279.84 214.723 279.796 214.755 279.76 214.783C279.736 214.844 279.713 214.888 279.702 214.909C279.66 214.991 279.616 215.057 279.587 215.099C279.527 215.185 279.462 215.264 279.412 215.323C279.306 215.447 279.173 215.587 279.037 215.727C278.76 216.01 278.398 216.358 278.031 216.697C277.665 217.034 277.275 217.381 276.939 217.657C276.773 217.794 276.6 217.93 276.439 218.045C276.359 218.101 276.259 218.169 276.148 218.234L276.146 218.235C276.076 218.276 275.843 218.413 275.516 218.506C275.508 218.509 275.483 218.52 275.436 218.545C275.364 218.584 275.314 218.616 275.231 218.667C275.18 218.699 275.117 218.738 275.029 218.792C274.665 219.012 273.922 219.452 272.814 219.519C272.293 219.551 271.342 219.786 270.733 220.033C270.061 220.305 269.354 220.464 268.787 220.577C268.514 220.631 268.294 220.672 268.096 220.708C267.825 220.758 267.599 220.8 267.346 220.857C267.336 220.86 267.32 220.865 267.299 220.872C267.23 220.895 267.135 220.929 267.016 220.973C266.779 221.06 266.489 221.174 266.206 221.291C265.933 221.404 265.694 221.51 265.524 221.593C265.054 222.089 264.382 222.355 263.958 222.495C263.37 222.689 262.71 222.816 262.156 222.909C261.847 222.96 261.459 223.018 261.114 223.07C260.895 223.103 260.693 223.133 260.54 223.157C260.031 223.238 259.737 223.3 259.588 223.348L259.188 223.474L258.753 223.468C251.87 223.367 246.843 221.068 242.717 218.071C240.672 216.585 238.826 214.913 237.078 213.245C236.465 212.66 235.87 212.082 235.283 211.51C234.163 210.422 233.07 209.359 231.925 208.322C231.442 207.884 230.952 207.445 230.459 207.004C226.406 203.374 222.169 199.58 219.918 194.732C218.469 191.611 217.871 188.703 217.518 185.519C217.435 184.775 217.316 184.066 217.19 183.316C217.096 182.754 216.998 182.169 216.908 181.529C216.712 180.131 216.59 178.632 216.829 177.176C217.125 175.374 217.044 173.477 216.959 171.507C216.947 171.236 216.935 170.964 216.924 170.691C216.891 169.846 216.998 169.043 217.127 168.305C217.181 167.996 217.235 167.716 217.287 167.446C217.368 167.027 217.444 166.634 217.506 166.204C217.783 164.282 218.928 162.308 220.408 160.609C221.892 158.904 223.818 157.356 225.835 156.321C227.837 155.292 230.357 154.347 233.038 154.075C233.545 154.023 233.967 153.919 234.575 153.769C234.715 153.734 234.865 153.697 235.028 153.658ZM263.953 173.845C263.964 173.871 263.965 173.877 263.956 173.854C263.955 173.852 263.954 173.849 263.953 173.845Z" fill="#B00B34"/>
</svg>
