<svg width="64" height="71" viewBox="0 0 64 71" fill="none" xmlns="http://www.w3.org/2000/svg">
<path d="M13.0046 54.2678C18.2345 60.6611 22.559 68.6816 31.7591 68.8636C32.7883 68.424 35.2208 68.3584 35.5818 67.5163C35.6741 67.3008 37.3113 66.4262 37.6233 66.3295C38.3531 66.1033 39.2169 65.9801 39.89 65.6123C40.4669 65.297 41.3758 64.9735 42.0295 64.9199C42.6951 64.8652 43.0048 64.2312 43.6192 63.9998C43.9179 63.8873 45.8541 61.4381 45.8622 61.2461C45.8839 60.7346 46.792 60.2544 47.0308 59.7434C47.2806 59.2092 48.019 58.6285 48.3921 58.1387C48.8867 57.4893 49.1313 56.9401 49.7273 56.3926C50.2906 55.8753 51.2158 55.061 51.6201 54.4429C53.149 52.1049 56.2277 50.1578 56.6191 47.3143C56.7482 46.3765 57.223 45.2638 57.4509 44.3319C57.7402 43.149 58.3626 41.8385 58.7743 40.6919C59.3989 38.9525 59.9261 37.17 60.601 35.4889C61.262 33.8424 61.1932 32.1077 61.4307 30.3821C61.6346 28.9005 61.9203 27.0786 61.7967 25.5718C61.5947 23.1111 62.168 20.6515 61.965 18.1794L61.5027 12.5471C61.3701 10.9311 61.2719 8.53431 60.0442 7.36973C58.9829 6.36303 57.1486 5.27473 55.5997 5.16497C53.3783 5.00754 51.0997 3.71123 48.9061 3.89129C47.3058 4.02265 45.4912 4.1246 44.0763 4.86195C43.1707 5.33389 42.4815 5.85407 41.6351 6.42608C40.4438 7.23115 39.8928 8.6506 38.7668 9.43207C37.357 10.4105 36.0936 12.6606 35.4092 14.1721C34.8199 15.4734 35.2419 17.2512 35.1208 18.7034C35.0851 19.1307 34.617 19.4505 34.5122 19.8587C34.4014 20.2901 34.5787 20.9375 34.2585 21.315C34.1014 21.5002 33.9331 19.7995 33.9161 19.5918L33.696 16.9111C33.6288 16.0918 33.3447 16.0349 32.9268 15.4095C32.1855 14.3 31.6635 12.7734 30.9319 11.5681C30.2824 10.498 29.6205 9.30407 28.8567 8.32194C25.7904 4.37899 21.5263 1.8092 16.424 1.66243C15.0489 1.62288 14.1408 2.2829 12.8716 2.45645C11.203 2.68463 9.55845 3.49638 8.18313 4.44909C5.57474 6.25595 2.99256 10.0235 2.64735 13.2582C2.49394 14.6956 2.18114 16.0872 2.2238 17.5421C2.28844 19.7461 2.40977 22.0614 2.143 24.2526C1.82976 26.8256 2.44755 29.7117 2.65937 32.2922C2.9151 35.4076 3.34342 38.1804 4.36169 41.1388C6.12471 46.2611 9.62276 50.1338 13.0046 54.2678Z" fill="#D23960"/>
<path fill-rule="evenodd" clip-rule="evenodd" d="M14.8371 3.48465C14.3777 3.63976 13.7567 3.84947 13.0754 3.94263C11.7253 4.12725 10.3043 4.80482 9.03782 5.68215C7.92386 6.45381 6.75623 7.69264 5.82736 9.1317C4.89468 10.5766 4.27961 12.1038 4.13942 13.4174C4.08928 13.8872 4.01771 14.3898 3.95126 14.8564C3.91448 15.1147 3.87926 15.362 3.85012 15.5866C3.76182 16.2673 3.70581 16.8878 3.7237 17.4982C3.73136 17.7593 3.74002 18.0252 3.7488 18.2949C3.8121 20.2396 3.88196 22.3853 3.63255 24.4339C3.4966 25.5506 3.55842 26.7815 3.69681 28.1147C3.74848 28.6124 3.81578 29.1593 3.8846 29.7186C3.98671 30.5485 4.09218 31.4056 4.15489 32.1695C4.40499 35.2164 4.81791 37.8538 5.78057 40.6507C7.26047 44.9504 10.0356 48.3114 13.0788 51.9971C13.4381 52.4322 13.8011 52.8718 14.1661 53.3181C15.0449 54.3924 15.9125 55.5299 16.7628 56.6447C17.1908 57.2058 17.6143 57.7611 18.0327 58.2998C19.3062 59.9393 20.575 61.4825 21.9434 62.8236C24.5937 65.4207 27.5545 67.2012 31.5138 67.3558C31.8256 67.2532 32.1503 67.1785 32.4259 67.1194C32.6327 67.0751 32.8053 67.0406 32.9691 67.0079C33.1738 66.967 33.3646 66.9289 33.5911 66.8778C33.9493 66.7969 34.1954 66.724 34.3505 66.6573C34.4227 66.5507 34.4901 66.4774 34.5233 66.442C34.5995 66.3609 34.6742 66.2957 34.7292 66.2503C34.8405 66.1585 34.9614 66.0739 35.0665 66.0041C35.2821 65.8608 35.5415 65.7076 35.7874 65.5698C36.0371 65.4299 36.2955 65.2933 36.5178 65.1826C36.6969 65.0934 36.9662 64.9629 37.1797 64.8967C37.4472 64.8138 37.7802 64.7301 38.056 64.6607C38.1834 64.6287 38.2986 64.5997 38.3895 64.5753C38.7518 64.478 38.9958 64.3919 39.1712 64.296C39.8476 63.9264 40.9056 63.5306 41.8054 63.4345C41.8262 63.4193 41.8555 63.3969 41.8942 63.3652C41.908 63.354 41.9272 63.3379 41.9505 63.3184C42.0384 63.245 42.1844 63.123 42.3152 63.0265C42.4515 62.926 42.6216 62.8126 42.8265 62.7112C42.8668 62.6695 42.9181 62.6146 42.9803 62.5455C43.1785 62.3253 43.4296 62.0261 43.6808 61.7134C43.9313 61.4016 44.1675 61.0941 44.3365 60.8611C44.3782 60.8036 44.413 60.7544 44.4413 60.7135C44.5353 60.3892 44.6943 60.1394 44.8127 59.9785C44.9888 59.7392 45.1957 59.5377 45.3298 59.4097C45.386 59.356 45.4323 59.3124 45.4723 59.2748C45.5527 59.1991 45.6075 59.1475 45.6655 59.0868C45.682 59.0694 45.694 59.0561 45.7024 59.0464C45.9499 58.5506 46.347 58.1319 46.5841 57.8852C46.6812 57.7841 46.764 57.6993 46.8356 57.6261C47.009 57.4486 47.1164 57.3388 47.1993 57.2299C47.3405 57.0444 47.4382 56.8972 47.556 56.7197C47.6226 56.6193 47.6956 56.5092 47.7866 56.377C48.0162 56.0434 48.2992 55.6682 48.7132 55.2879C48.7802 55.2264 48.8491 55.1635 48.9194 55.0993C49.1651 54.8752 49.4278 54.6356 49.6835 54.3847C50.0262 54.0485 50.258 53.7859 50.3652 53.6219C50.8155 52.9333 51.3609 52.3015 51.8863 51.7286C52.1275 51.4657 52.3489 51.2311 52.5628 51.0045C52.8545 50.6955 53.1321 50.4014 53.4262 50.0709C54.4069 48.9691 55.003 48.0589 55.1337 47.1098C55.2176 46.4996 55.406 45.8772 55.5695 45.3649C55.6101 45.2375 55.6492 45.117 55.6864 45.0021C55.8133 44.6105 55.9189 44.2844 55.9944 43.9756C56.1643 43.2808 56.4237 42.5793 56.6712 41.9496C56.7595 41.725 56.8444 41.5138 56.9257 41.3115C57.0862 40.9123 57.2327 40.5481 57.3631 40.185C57.5766 39.5904 57.7913 38.9499 58.0114 38.293C58.3877 37.1704 58.78 36 59.2095 34.9301C59.4664 34.2902 59.5954 33.5995 59.6844 32.7994C59.7137 32.5358 59.7419 32.2122 59.772 31.8658C59.8204 31.3105 59.8738 30.6967 59.9452 30.1776C59.9617 30.0579 59.9784 29.9378 59.9951 29.8175C60.196 28.3715 60.4009 26.8963 60.3022 25.6945C60.1917 24.3473 60.2917 23.0189 60.3819 21.8217L60.386 21.7673C60.4802 20.5164 60.5608 19.4011 60.4706 18.3022L60.0083 12.6698C59.9978 12.5423 59.9878 12.4144 59.9778 12.2863C59.9198 11.5473 59.8614 10.8014 59.7154 10.0911C59.5398 9.23681 59.2877 8.71911 59.0124 8.45803C58.5871 8.05456 57.9774 7.61014 57.3086 7.25939C56.628 6.90244 55.9888 6.69628 55.4942 6.66122C54.3521 6.58029 53.2024 6.24411 52.2393 5.9625C52.0987 5.92138 51.962 5.88142 51.83 5.84359C50.7007 5.52013 49.8231 5.32112 49.0294 5.38627C48.9625 5.39176 48.896 5.39719 48.8299 5.40258C47.1964 5.53593 45.8125 5.6489 44.7701 6.19216C44.1562 6.51207 43.6788 6.8416 43.0794 7.25525C42.8926 7.38421 42.6939 7.52134 42.4755 7.6689C42.1091 7.91654 41.8093 8.27866 41.364 8.85505C41.3431 8.88208 41.3218 8.90979 41.2999 8.93811C40.9096 9.44471 40.3692 10.1462 39.6226 10.6644C39.1502 10.9922 38.6075 11.613 38.0678 12.4294C37.5443 13.2213 37.0943 14.0883 36.7761 14.7909C36.6303 15.1129 36.5735 15.5887 36.5896 16.3494C36.5932 16.5172 36.6016 16.7129 36.6108 16.9254C36.636 17.51 36.6667 18.2215 36.6161 18.8281C36.5856 19.194 36.4657 19.4908 36.3546 19.7029C36.2481 19.9062 36.1247 20.0764 36.0545 20.1726C36.0331 20.202 36.0154 20.2262 36.0005 20.2464C35.9886 20.2626 35.9786 20.2763 35.97 20.2882C35.9691 20.324 35.9687 20.3642 35.9682 20.4181L35.9681 20.4243C35.9675 20.4888 35.9666 20.5734 35.9635 20.6615C35.953 20.9501 35.9206 21.6751 35.4029 22.2853C35.1986 22.5262 34.6593 22.9715 33.8842 22.7882C33.3011 22.6502 33.0168 22.2311 32.956 22.141C32.7918 21.8973 32.7203 21.6404 32.6983 21.5613L32.6969 21.5563C32.6319 21.3235 32.5847 21.043 32.5517 20.822C32.4818 20.3532 32.4321 19.842 32.4216 19.7145L32.2016 17.0338C32.1963 16.9698 32.1901 16.9294 32.1858 16.9068C32.169 16.8844 32.141 16.85 32.073 16.7667L32.0516 16.7403C31.9547 16.6215 31.8238 16.4578 31.6801 16.2428C31.2371 15.5797 30.8767 14.8197 30.5681 14.1615C30.5491 14.1209 30.5302 14.0806 30.5115 14.0406C30.2085 13.3938 29.9465 12.8346 29.6502 12.3465C29.4952 12.0911 29.3455 11.8396 29.1988 11.5932C28.6872 10.7339 28.212 9.93564 27.6732 9.24277C24.8315 5.58872 20.9603 3.29353 16.3814 3.16182C15.956 3.14958 15.5829 3.23962 15.0735 3.40568C15.0006 3.42945 14.9216 3.45613 14.8371 3.48465ZM34.4479 66.6078C34.4479 66.6078 34.4425 66.6124 34.428 66.6204C34.44 66.6116 34.4479 66.6078 34.4479 66.6078ZM14.1437 0.5534C14.7495 0.355944 15.5179 0.135742 16.4676 0.16306C22.0934 0.324885 26.7504 3.16928 30.0413 7.40111C30.7069 8.257 31.3098 9.27147 31.8329 10.1516C31.9654 10.3745 32.0928 10.5889 32.2147 10.7898C32.599 11.4228 32.9271 12.1242 33.2124 12.7341C33.2367 12.7861 33.2607 12.8374 33.2844 12.8879C33.4883 13.3229 33.6724 13.707 33.856 14.0439C33.9082 13.8791 33.9701 13.7151 34.0433 13.5534C34.4096 12.7445 34.9335 11.7307 35.5652 10.775C36.1808 9.84383 36.9747 8.85035 37.9121 8.19978C38.2498 7.96544 38.5298 7.61651 38.99 7.02082L39.0146 6.98897C39.4223 6.46112 39.9873 5.72963 40.7958 5.18326C40.9584 5.07334 41.1226 4.95984 41.2898 4.84425C41.9181 4.40978 42.5891 3.94584 43.3836 3.53176C44.9918 2.69368 46.965 2.53918 48.4231 2.42502C48.5473 2.4153 48.6678 2.40586 48.7839 2.39633C50.1838 2.28142 51.5423 2.64054 52.6561 2.95957C52.8087 3.00328 52.9568 3.04624 53.1012 3.08807C54.0978 3.37702 54.9091 3.61224 55.7063 3.66873C56.7605 3.74344 57.8129 4.13631 58.702 4.60262C59.6029 5.07514 60.441 5.67821 61.077 6.28144C62.0295 7.18495 62.4404 8.44791 62.6539 9.48714C62.8412 10.3982 62.9152 11.3564 62.9716 12.086C62.9808 12.2053 62.9896 12.3185 62.9982 12.4244L63.4606 18.0567C63.5718 19.4123 63.4714 20.7458 63.381 21.9459L63.3775 21.9925C63.2833 23.2442 63.2025 24.3561 63.2922 25.4491C63.4198 27.0041 63.1657 28.8145 62.9731 30.1859C62.9537 30.3242 62.9349 30.458 62.9172 30.5867C62.8487 31.0845 62.8138 31.5042 62.776 31.9593C62.7467 32.3113 62.7157 32.6843 62.666 33.131C62.5648 34.0413 62.3977 35.0411 61.9935 36.0478C61.5872 37.0601 61.2552 38.0542 60.9067 39.0975C60.6817 39.7714 60.4498 40.4657 60.1866 41.1988C60.0372 41.6147 59.8548 42.0687 59.6823 42.4981C59.6061 42.6877 59.5319 42.8724 59.4633 43.047C59.2244 43.6548 59.0279 44.2001 58.9085 44.6883C58.804 45.1157 58.6524 45.5827 58.5203 45.9894C58.4879 46.0894 58.4566 46.1857 58.4275 46.2769C58.2643 46.7883 58.1507 47.1911 58.1056 47.5188C57.8449 49.4132 56.7059 50.8984 55.6672 52.0655C55.3628 52.4074 55.0137 52.7782 54.6856 53.1265C54.4749 53.3504 54.2729 53.5649 54.0971 53.7565C53.603 54.2952 53.1901 54.7835 52.876 55.2638C52.579 55.718 52.146 56.1716 51.7842 56.5264C51.4854 56.8195 51.1686 57.1085 50.9195 57.3356C50.8556 57.3939 50.7961 57.4482 50.7426 57.4974C50.5605 57.6646 50.4232 57.8376 50.2578 58.0779C50.2192 58.134 50.1724 58.2043 50.1193 58.2841C49.9756 58.4999 49.7856 58.7854 49.5859 59.0476C49.379 59.3193 49.0844 59.6194 48.8773 59.8305C48.8283 59.8804 48.7843 59.9253 48.7474 59.9637C48.6259 60.0902 48.5348 60.1904 48.4666 60.2753C48.3991 60.3594 48.3838 60.3921 48.389 60.3811C48.225 60.7309 47.9893 60.9969 47.8367 61.1569C47.7183 61.2811 47.5742 61.4167 47.4738 61.5112C47.4458 61.5375 47.4212 61.5606 47.4015 61.5794C47.3606 61.6186 47.3277 61.6507 47.3007 61.6782C47.283 61.7395 47.2663 61.7834 47.2582 61.8046C47.2271 61.8862 47.1944 61.9528 47.1727 61.9949C47.1286 62.0806 47.0804 62.1594 47.0428 62.2188C46.9643 62.3423 46.8663 62.4827 46.7652 62.6221C46.5595 62.9058 46.2915 63.2537 46.0197 63.5922C45.7484 63.9299 45.459 64.276 45.2099 64.5527C45.0872 64.689 44.959 64.8255 44.8391 64.9403C44.7801 64.9969 44.706 65.0647 44.6238 65.1296L44.6224 65.1307C44.5704 65.1718 44.3973 65.3085 44.155 65.4011C44.1491 65.4044 44.1305 65.4153 44.0962 65.4406C44.0429 65.48 44.0055 65.5112 43.944 65.5628C43.9062 65.5944 43.8593 65.6336 43.7939 65.6871C43.5248 65.9073 42.9739 66.3474 42.1527 66.4148C41.7662 66.4466 41.0615 66.6817 40.6098 66.9286C40.1121 67.2005 39.5876 67.3599 39.1673 67.4727C38.9654 67.5269 38.8017 67.5676 38.6555 67.6039C38.4547 67.6538 38.2872 67.6954 38.0996 67.7525C38.0919 67.7558 38.0804 67.7608 38.0648 67.7678C38.0137 67.7907 37.9427 67.8244 37.8547 67.8682C37.6794 67.9555 37.4642 68.0691 37.254 68.1869C37.0523 68.3 36.8747 68.4059 36.7486 68.4884C36.4006 68.9847 35.9021 69.2504 35.5882 69.3903C35.1523 69.5846 34.663 69.7112 34.2521 69.804C34.0232 69.8557 33.7357 69.9138 33.4801 69.9654C33.3176 69.9983 33.1681 70.0285 33.0548 70.0527C32.6773 70.1337 32.4596 70.1958 32.3488 70.2431L32.0523 70.3697L31.7299 70.3633C26.628 70.2624 22.9021 67.9633 19.8437 64.9663C18.3273 63.4803 16.9593 61.8083 15.6635 60.1401C15.2093 59.5554 14.7685 58.9772 14.3329 58.406C13.5032 57.3179 12.6925 56.2547 11.8441 55.2176C11.4858 54.7796 11.1226 54.3408 10.7575 53.8996C7.75277 50.2692 4.61255 46.4751 2.9439 41.627C1.87002 38.507 1.42629 35.5989 1.16494 32.4149C1.10384 31.6706 1.01555 30.9616 0.922124 30.2115C0.852157 29.6496 0.77931 29.0647 0.712849 28.4245C0.567706 27.0263 0.477248 25.5277 0.654538 24.0714C0.873927 22.2693 0.813322 20.3727 0.750366 18.4026C0.741713 18.1318 0.733014 17.8596 0.724993 17.5861C0.700225 16.7415 0.779282 15.9388 0.875059 15.2006C0.915125 14.8918 0.955368 14.6111 0.99404 14.3413C1.05412 13.9222 1.11042 13.5295 1.15636 13.099C1.36139 11.1779 2.21001 9.204 3.30683 7.50476C4.40744 5.79963 5.8351 4.25124 7.32951 3.21604C8.81366 2.18795 10.6817 1.24204 12.6689 0.970292C13.045 0.918874 13.3575 0.814653 13.8082 0.664364C13.9119 0.629787 14.0229 0.592771 14.1437 0.5534ZM35.5841 20.7409C35.5928 20.767 35.5929 20.773 35.5865 20.7499C35.5857 20.7473 35.5849 20.7443 35.5841 20.7409Z" fill="#B00B34"/>
</svg>
